<svg width="75" height="75" viewBox="0 0 75 75" fill="none" xmlns="http://www.w3.org/2000/svg">
<path d="M4.6875 46.875H43.3594V59.0625C43.3594 60 43.8281 60.7031 44.7656 61.1719C45.7031 61.6406 46.6406 61.4063 47.3438 60.7032L71.9531 39.1406C72.4219 38.6719 72.6562 37.9688 72.6562 37.2656C72.6562 36.5625 72.4219 35.8594 71.9531 35.3907L47.3438 13.8281C46.875 13.3594 46.4063 13.3594 45.7031 13.3594C45.4687 13.3594 45 13.3594 44.7656 13.5938C43.8281 14.0625 43.3594 14.7657 43.3594 15.7032V28.125H4.6875C3.28125 28.125 2.34375 29.0625 2.34375 30.4688L2.34375 44.5313C2.34375 45.9375 3.28125 46.875 4.6875 46.875ZM7.03125 32.8125H45.7031C47.1094 32.8125 48.0469 31.875 48.0469 30.4688V21.0938L66.7969 37.5L48.0469 53.9063V44.5313C48.0469 43.125 47.1094 42.1875 45.7031 42.1875H7.03125L7.03125 32.8125Z" fill="white"/>
</svg>
