<svg width="100" height="100" viewBox="0 0 100 100" fill="none" xmlns="http://www.w3.org/2000/svg">
<path d="M78.2425 45.5012H75.8022L79.3389 32.5324H84.5185C86.1366 32.5324 87.4482 31.2207 87.4482 29.6027C87.4482 27.9847 86.1366 26.673 84.5185 26.673H65.6906C64.0728 26.673 62.7609 27.9847 62.7609 29.6027C62.7609 31.2207 64.0728 32.5324 65.6906 32.5324H73.2655L69.7289 45.5012H25.5935L33.4098 16.8424H40.5862C42.2043 16.8424 43.5159 15.5307 43.5159 13.9127C43.5159 12.2948 42.2043 10.983 40.5862 10.983H31.1723C29.851 10.983 28.6935 11.8672 28.3455 13.1418L19.488 45.6194C8.55337 46.7582 0 56.0284 0 67.2593C0 79.2567 9.7606 89.0169 21.7577 89.0169C33.7553 89.0169 43.5157 79.2565 43.5157 67.2593C43.5157 60.9911 40.8504 55.3347 36.5949 51.3608H63.4053C59.1496 55.3349 56.4841 60.9913 56.4841 67.2593C56.4841 79.2567 66.2449 89.0169 78.2421 89.0169C90.2396 89.0169 100 79.2565 100 67.2593C100 55.2618 90.2398 45.5012 78.2425 45.5012ZM37.6565 67.2593C37.6565 76.0256 30.5244 83.1575 21.7579 83.1575C12.9915 83.1575 5.85941 76.0256 5.85941 67.2593C5.85941 58.4968 12.9846 51.3676 21.7458 51.3612C21.7503 51.3612 21.7552 51.3616 21.7597 51.3616C21.7632 51.3616 21.7667 51.3612 21.7704 51.3612C30.5312 51.3678 37.6565 58.4968 37.6565 67.2593ZM78.2425 83.1575C69.476 83.1575 62.3439 76.0254 62.3439 67.2593C62.3439 58.4927 69.4762 51.3608 78.2425 51.3608C87.0091 51.3608 94.141 58.4929 94.141 67.2593C94.141 76.0256 87.0089 83.1575 78.2425 83.1575Z" fill="white"/>
</svg>
