<svg width="100" height="100" viewBox="0 0 100 100" fill="none" xmlns="http://www.w3.org/2000/svg">
<g clip-path="url(#clip0_19_573)">
<path d="M73.6318 6.40592C76.1681 6.37467 78.7209 6.48385 81.2797 6.73717C85.3857 7.14615 88.9355 8.30397 90.3185 9.68717C91.7035 11.0721 92.8629 14.6217 93.2703 18.7278C93.3847 19.8682 93.4679 21.0088 93.5234 22.1528C93.6101 23.9172 95.125 25.2934 96.8755 25.1928C98.6418 25.1061 100.002 23.6051 99.9156 21.8407C99.8548 20.5893 99.7648 19.3395 99.64 18.0934C99.3037 14.7188 98.2343 8.55357 94.8459 5.16158C91.4574 1.77311 85.2886 0.703575 81.9123 0.367442C59.5828 -1.84057 37.6832 5.97643 21.8308 21.8253C10.3099 33.3479 3.01812 47.9436 0.745859 64.0368C0.640195 64.7856 0.804844 65.5499 1.20855 66.1895C7.63043 76.3735 16.5484 86.0305 26.3886 93.594C23.8505 93.6255 21.2961 93.5163 18.7353 93.2628C14.6293 92.8555 11.0812 91.696 9.69645 90.311C8.30992 88.9227 7.15035 85.3747 6.74469 81.2721C6.61988 80.0258 6.53141 78.7762 6.47594 77.5249C6.39801 75.7569 4.92477 74.3686 3.13941 74.4674C1.37496 74.5454 0.00562493 76.0395 0.0837499 77.8057C0.142734 79.1733 0.241562 80.5409 0.376719 81.9014C0.709531 85.2743 1.77535 91.4395 5.17086 94.8333C8.55934 98.227 14.7281 99.2963 18.1027 99.6309C20.5933 99.8788 23.0753 100 25.547 100C45.242 100 64.1015 92.2559 78.1841 78.1749C89.705 66.6505 96.9968 52.0547 99.2691 35.9581C99.3748 35.2092 99.2101 34.4467 98.8064 33.8053C92.3881 23.6237 83.4726 13.9688 73.6318 6.40592ZM92.7607 36.2251C92.4093 38.4434 91.9529 40.6294 91.3941 42.7782C83.1627 29.3661 70.6449 16.8481 57.2316 8.61568C59.3797 8.05358 61.5584 7.59674 63.7603 7.24674C74.9992 14.5473 85.4711 25.011 92.7607 36.2251ZM7.25582 63.7682C7.60719 61.5506 8.06363 59.3655 8.62242 57.2174C16.8548 70.6329 29.3738 83.1516 42.7875 91.3846C40.6388 91.9467 38.4599 92.4038 36.2572 92.7536C25.0175 85.4532 14.5466 74.9883 7.25582 63.7682ZM73.6603 73.6495C67.0804 80.2294 59.3591 85.2948 50.9775 88.6753C34.9736 80.3567 19.6447 65.0245 11.3275 49.0186C14.713 40.6028 19.7796 32.9288 26.3566 26.3506C32.938 19.7708 40.6607 14.7051 49.0427 11.3249C65.0466 19.6436 80.3754 34.9741 88.6906 50.9766C85.3048 59.396 80.2379 67.0717 73.6603 73.6495Z" fill="white"/>
<path d="M65.1084 30.3737L60.4083 35.0742L56.7802 31.4465C55.5324 30.1951 53.5062 30.1951 52.2564 31.4465C51.0068 32.6944 51.0068 34.7205 52.2564 35.9703L55.8849 39.5983L50.0082 45.4756L46.3808 41.8477C45.1294 40.5981 43.105 40.5981 41.8552 41.8477C40.6056 43.0973 40.6056 45.1235 41.8552 46.3733L45.4828 50.0014L39.6074 55.8774L35.9794 52.2491C34.7316 50.9994 32.7054 50.9994 31.4556 52.2491C30.206 53.4969 30.206 55.5248 31.4556 56.7746L35.0832 60.4022L30.3828 65.103C29.1332 66.3508 29.1332 68.3787 30.3828 69.6285C31.0068 70.2526 31.8248 70.5662 32.6447 70.5662C33.4628 70.5662 34.2808 70.2526 34.9066 69.6285L39.608 64.927L43.2349 68.5539C43.8589 69.178 44.6769 69.4916 45.4968 69.4916C46.315 69.4916 47.133 69.178 47.7587 68.5539C49.0083 67.3061 49.0083 65.2799 47.7587 64.0301L44.132 60.4028L50.0076 54.527L53.631 58.151C54.2584 58.775 55.0748 59.0887 55.8947 59.0887C56.7146 59.0887 57.5326 58.775 58.1566 58.151C59.4062 56.9014 59.4062 54.8752 58.1566 53.6254L54.533 50.0014L60.4107 44.1235L64.0376 47.7498C64.6634 48.3756 65.4796 48.6875 66.2996 48.6875C67.1195 48.6875 67.9375 48.3756 68.5615 47.7498C69.8111 46.502 69.8111 44.4758 68.5615 43.226L64.9345 39.5996L69.6343 34.8994C70.8839 33.6498 70.8839 31.6237 69.6343 30.3739C68.3859 29.1239 66.3597 29.1221 65.1084 30.3737Z" fill="white"/>
</g>
<defs>
<clipPath id="clip0_19_573">
<rect width="100" height="100" fill="white"/>
</clipPath>
</defs>
</svg>
