<svg width="63" height="63" viewBox="0 0 63 63" fill="none" xmlns="http://www.w3.org/2000/svg">
<path d="M20.16 3.78003C11.129 3.78003 3.78003 11.129 3.78003 20.16V42.84C3.78003 51.8711 11.129 59.22 20.16 59.22H42.84C51.8711 59.22 59.22 51.8711 59.22 42.84V20.16C59.22 11.129 51.8711 3.78003 42.84 3.78003H20.16ZM20.16 6.30003H42.84C50.509 6.30003 56.7 12.4911 56.7 20.16V42.84C56.7 50.509 50.509 56.7 42.84 56.7H20.16C12.4911 56.7 6.30003 50.509 6.30003 42.84V20.16C6.30003 12.4911 12.4911 6.30003 20.16 6.30003ZM46.62 13.86C45.9517 13.86 45.3107 14.1255 44.8381 14.5981C44.3655 15.0707 44.1 15.7117 44.1 16.38C44.1 17.0484 44.3655 17.6893 44.8381 18.1619C45.3107 18.6345 45.9517 18.9 46.62 18.9C47.2884 18.9 47.9294 18.6345 48.4019 18.1619C48.8745 17.6893 49.14 17.0484 49.14 16.38C49.14 15.7117 48.8745 15.0707 48.4019 14.5981C47.9294 14.1255 47.2884 13.86 46.62 13.86ZM31.5 17.64C23.8603 17.64 17.64 23.8603 17.64 31.5C17.64 39.1398 23.8603 45.36 31.5 45.36C39.1398 45.36 45.36 39.1398 45.36 31.5C45.36 23.8603 39.1398 17.64 31.5 17.64ZM31.5 20.16C37.7779 20.16 42.84 25.2222 42.84 31.5C42.84 37.7779 37.7779 42.84 31.5 42.84C25.2222 42.84 20.16 37.7779 20.16 31.5C20.16 25.2222 25.2222 20.16 31.5 20.16Z" fill="white"/>
</svg>
