<svg width="69" height="48" viewBox="0 0 69 48" fill="none" xmlns="http://www.w3.org/2000/svg">
<path d="M4.50843 36.0285V0H64.5333V36.0285H68.5209V48H0.520874V36.0285H4.50843ZM60.5489 3.98839H8.49281V36.0285H60.5489V3.98839ZM4.50525 44.0116H64.5365V40.0168H4.50525V44.0116Z" fill="white"/>
<path d="M56.5582 14.2593V25.7574L45.4781 31.8094L34.3979 25.7574V14.2593L45.4781 8.20728L56.5582 14.2593ZM40.5493 15.4429L45.4781 18.135L50.4069 15.4429L45.4781 12.7508L40.5493 15.4429ZM52.5739 18.8028L47.4703 21.5904V26.1778L52.5739 23.3901V18.8028ZM43.4859 26.1778V21.5904L38.3823 18.8028V23.3903L43.4859 26.1778Z" fill="white"/>
<path d="M12.482 10.031H30.4088V14.0194H12.482V10.031Z" fill="white"/>
<path d="M12.482 18.0144H30.4088V22.0028H12.482V18.0144Z" fill="white"/>
<path d="M12.482 25.9973H30.4088V29.9857H12.482V25.9973Z" fill="white"/>
</svg>
