<svg width="68" height="68" viewBox="0 0 68 68" fill="none" xmlns="http://www.w3.org/2000/svg">
<g clip-path="url(#clip0_22_690)">
<path d="M53.1868 19.975C53.7172 19.975 54.2259 19.7643 54.601 19.3892C54.9761 19.0141 55.1868 18.5054 55.1868 17.975V7.86476C55.1844 5.7796 54.355 3.78054 52.8806 2.30613C51.4061 0.831713 49.4071 0.00235513 47.3219 0L20.6781 0C18.593 0.00235513 16.5939 0.831713 15.1195 2.30613C13.645 3.78054 12.8156 5.7796 12.8132 7.86476V60.1352C12.8156 62.2204 13.645 64.2195 15.1195 65.6939C16.5939 67.1683 18.593 67.9976 20.6781 68H47.3219C49.4071 67.9976 51.4061 67.1683 52.8806 65.6939C54.355 64.2195 55.1844 62.2204 55.1868 60.1352V25.2785C55.1868 24.748 54.9761 24.2393 54.601 23.8642C54.2259 23.4892 53.7172 23.2784 53.1868 23.2784C52.6563 23.2784 52.1476 23.4892 51.7725 23.8642C51.3975 24.2393 51.1868 24.748 51.1868 25.2785V60.1352C51.1856 61.1599 50.7781 62.1423 50.0535 62.8669C49.329 63.5914 48.3466 63.999 47.3219 64.0001H20.6781C19.6534 63.999 18.6711 63.5914 17.9465 62.8669C17.222 62.1423 16.8144 61.1599 16.8133 60.1352V7.86476C16.8144 6.84008 17.222 5.8577 17.9465 5.13314C18.6711 4.40859 19.6534 4.00104 20.6781 3.99991H47.3219C48.3466 4.00104 49.329 4.40859 50.0535 5.13314C50.7781 5.8577 51.1856 6.84008 51.1868 7.86476V17.9755C51.1869 18.5059 51.3977 19.0144 51.7727 19.3894C52.1478 19.7644 52.6564 19.975 53.1868 19.975Z" fill="white"/>
<path d="M42.0789 10.4575H33.7866C33.5226 10.4597 33.2608 10.4095 33.0162 10.31C32.7717 10.2104 32.5493 10.0634 32.3618 9.87752C32.1744 9.6916 32.0256 9.4704 31.9241 9.22668C31.8225 8.98297 31.7703 8.72156 31.7703 8.45754C31.7703 8.19352 31.8225 7.93212 31.9241 7.6884C32.0256 7.44469 32.1744 7.22349 32.3618 7.03756C32.5493 6.85164 32.7717 6.70466 33.0162 6.60512C33.2608 6.50558 33.5226 6.45543 33.7866 6.45759H42.0789C42.3429 6.45543 42.6047 6.50558 42.8492 6.60512C43.0938 6.70466 43.3162 6.85164 43.5036 7.03756C43.6911 7.22349 43.8399 7.44469 43.9414 7.6884C44.0429 7.93212 44.0952 8.19352 44.0952 8.45754C44.0952 8.72156 44.0429 8.98297 43.9414 9.22668C43.8399 9.4704 43.6911 9.6916 43.5036 9.87752C43.3162 10.0634 43.0938 10.2104 42.8492 10.31C42.6047 10.4095 42.3429 10.4597 42.0789 10.4575Z" fill="white"/>
<path d="M27.6486 10.4575H25.9211C25.6571 10.4597 25.3953 10.4095 25.1507 10.31C24.9062 10.2104 24.6838 10.0634 24.4964 9.87752C24.3089 9.6916 24.1601 9.4704 24.0586 9.22668C23.9571 8.98297 23.9048 8.72156 23.9048 8.45754C23.9048 8.19352 23.9571 7.93212 24.0586 7.6884C24.1601 7.44469 24.3089 7.22349 24.4964 7.03756C24.6838 6.85164 24.9062 6.70466 25.1507 6.60512C25.3953 6.50558 25.6571 6.45543 25.9211 6.45759H27.6486C27.9126 6.45543 28.1744 6.50558 28.419 6.60512C28.6635 6.70466 28.8859 6.85164 29.0734 7.03756C29.2608 7.22349 29.4096 7.44469 29.5111 7.6884C29.6126 7.93212 29.6649 8.19352 29.6649 8.45754C29.6649 8.72156 29.6126 8.98297 29.5111 9.22668C29.4096 9.4704 29.2608 9.6916 29.0734 9.87752C28.8859 10.0634 28.6635 10.2104 28.419 10.31C28.1744 10.4095 27.9126 10.4597 27.6486 10.4575Z" fill="white"/>
<path d="M37.4335 61.9408H30.5671C30.3031 61.9429 30.0413 61.8928 29.7967 61.7932C29.5522 61.6937 29.3298 61.5467 29.1423 61.3608C28.9549 61.1749 28.8061 60.9537 28.7046 60.71C28.6031 60.4662 28.5508 60.2048 28.5508 59.9408C28.5508 59.6768 28.6031 59.4154 28.7046 59.1717C28.8061 58.928 28.9549 58.7068 29.1423 58.5208C29.3298 58.3349 29.5522 58.1879 29.7967 58.0884C30.0413 57.9889 30.3031 57.9387 30.5671 57.9409H37.4335C37.6975 57.9387 37.9593 57.9889 38.2039 58.0884C38.4484 58.1879 38.6708 58.3349 38.8583 58.5208C39.0457 58.7068 39.1945 58.928 39.296 59.1717C39.3976 59.4154 39.4498 59.6768 39.4498 59.9408C39.4498 60.2048 39.3976 60.4662 39.296 60.71C39.1945 60.9537 39.0457 61.1749 38.8583 61.3608C38.6708 61.5467 38.4484 61.6937 38.2039 61.7932C37.9593 61.8928 37.6975 61.9429 37.4335 61.9408Z" fill="white"/>
</g>
<defs>
<clipPath id="clip0_22_690">
<rect width="68" height="68" fill="white"/>
</clipPath>
</defs>
</svg>
