<svg width="68" height="68" viewBox="0 0 68 68" fill="none" xmlns="http://www.w3.org/2000/svg">
<path d="M45.7472 0H10.625V68H57.3076V11.5604L45.7472 0ZM46.9139 6.80197L50.5056 10.3931H46.9139V6.80197ZM14.6094 64.0156V3.98438H42.9301V14.3775H53.3232V64.0156H14.6094Z" fill="white"/>
<path d="M25.4393 30.8524L18.4661 37.8256L25.4393 44.7988L28.2569 41.9817L24.1008 37.8256L28.2569 33.6695L25.4393 30.8524Z" fill="white"/>
<path d="M39.6757 33.6695L43.8318 37.8256L39.6757 41.9817L42.4927 44.7988L49.4659 37.8256L42.4927 30.8524L39.6757 33.6695Z" fill="white"/>
<path d="M30.6377 43.4002L33.4112 31.3552L37.2944 32.2491L34.5204 44.2946L30.6377 43.4002Z" fill="white"/>
</svg>
