<svg width="68" height="68" viewBox="0 0 68 68" fill="none" xmlns="http://www.w3.org/2000/svg">
<path d="M34.0001 59.4999C33.1501 59.4999 32.3001 59.2166 32.0167 58.6499L11.0501 35.6999C5.95006 30.0333 5.95005 21.2499 11.6167 15.8666C14.4501 13.0333 18.4167 11.3333 22.6667 11.6166C26.6334 11.8999 30.6001 13.8833 33.1501 16.9999L34.0001 18.1333L35.1334 16.9999C37.6834 13.8833 41.6501 11.8999 45.6167 11.6166C49.5834 11.3333 53.8334 13.0333 56.6667 15.8666C62.0501 21.2499 62.3334 30.0333 57.2334 35.6999L36.2667 58.6499C35.7001 59.2166 34.8501 59.4999 34.0001 59.4999ZM21.8167 16.9999C19.2667 16.9999 17.2834 18.1333 15.5834 19.5499C12.1834 22.9499 12.1834 28.0499 15.3001 31.7333L34.0001 52.4166L52.7001 31.7333C55.8167 28.3333 55.8167 22.9499 52.4167 19.5499C50.7167 17.8499 48.1667 16.7166 45.6167 16.9999C43.0667 16.9999 40.8001 18.4166 39.3834 20.3999L36.2667 24.3666C35.1334 25.7833 32.8667 25.7833 31.7334 24.3666L28.6167 20.3999C26.9167 18.4166 24.6501 17.2833 22.1001 16.9999H21.8167Z" fill="white"/>
</svg>
