<svg width="68" height="65" viewBox="0 0 68 65" fill="none" xmlns="http://www.w3.org/2000/svg">
<path d="M40.8 13.6842V6.84211H27.2V13.6842H40.8ZM6.8 23.9474V54.7368C6.8 56.6184 8.33 58.1579 10.2 58.1579H57.8C59.67 58.1579 61.2 56.6184 61.2 54.7368V23.9474C61.2 22.0658 59.67 20.5263 57.8 20.5263H10.2C8.33 20.5263 6.8 22.0658 6.8 23.9474ZM61.2 13.6842C64.974 13.6842 68 16.7289 68 20.5263V58.1579C68 61.9553 64.974 65 61.2 65H6.8C3.026 65 0 61.9553 0 58.1579L0.034 20.5263C0.034 16.7289 3.026 13.6842 6.8 13.6842H20.4V6.84211C20.4 3.04474 23.426 0 27.2 0H40.8C44.574 0 47.6 3.04474 47.6 6.84211V13.6842H61.2Z" fill="white"/>
</svg>
