<svg width="68" height="69" viewBox="0 0 68 69" fill="none" xmlns="http://www.w3.org/2000/svg">
<path d="M41.1136 43.548C40.9274 43.4927 40.7316 43.4803 40.5405 43.5083C40.5182 43.5073 40.4957 43.5067 40.4734 43.5058C42.1975 41.8215 43.2706 39.4735 43.2706 36.8786V23.6509C43.2706 22.9175 42.6759 22.3228 41.9425 22.3228H32.1044C28.0381 22.3228 24.7298 25.631 24.7298 29.6973V36.8785C24.7298 39.4734 25.803 41.8214 27.527 43.5057C27.5047 43.5066 27.4822 43.5071 27.4599 43.5082C27.2689 43.4803 27.073 43.4925 26.8868 43.5479C20.021 44.1643 14.6213 49.9495 14.6213 56.9731V63.4946C14.6213 64.228 15.2161 64.8228 15.9495 64.8228H52.0511C52.7845 64.8228 53.3792 64.228 53.3792 63.4946V56.9733C53.3789 49.9497 47.9795 44.1644 41.1136 43.548ZM27.3858 31.5576V29.6973C27.3858 27.0956 29.5026 24.979 32.1041 24.979H40.6141V28.5332C40.6141 30.3291 39.153 31.7902 37.3571 31.7902H27.3858V31.5576ZM27.3858 36.8786V34.4464H37.3571C38.56 34.4464 39.6793 34.0845 40.6141 33.4652V36.8785C40.6141 40.5255 37.6469 43.4927 33.9999 43.4927C30.3528 43.4927 27.3858 40.5256 27.3858 36.8786ZM37.5272 46.1489L34 49.6762L30.4728 46.1489H37.5272ZM50.7227 62.1665H17.2773V58.3442H28.1154C28.8487 58.3442 29.4435 57.7494 29.4435 57.016C29.4435 56.2826 28.8487 55.6879 28.1154 55.6879H17.3563C17.9434 50.7517 21.8639 46.8259 26.7976 46.2303L33.0609 52.4936C33.3203 52.7529 33.6601 52.8826 34 52.8826C34.3399 52.8826 34.6797 52.7529 34.9391 52.4936L41.2024 46.2303C46.5578 46.8767 50.7227 51.4464 50.7227 56.9733V62.1665Z" fill="white"/>
<path d="M34.9389 56.077C34.692 55.83 34.3493 55.6879 34 55.6879C33.6507 55.6879 33.308 55.83 33.061 56.077C32.814 56.324 32.6719 56.6667 32.6719 57.016C32.6719 57.3653 32.8139 57.7079 33.061 57.955C33.308 58.2019 33.6507 58.3441 34 58.3441C34.3493 58.3441 34.692 58.202 34.9389 57.955C35.1859 57.7079 35.3281 57.3653 35.3281 57.016C35.3281 56.6667 35.186 56.324 34.9389 56.077Z" fill="white"/>
<path d="M34.0168 3.99463C31.234 3.99463 28.97 6.25868 28.97 9.0415C28.97 11.3647 30.5483 13.3251 32.6887 13.9097V17.1534C32.6887 17.8868 33.2835 18.4816 34.0168 18.4816C34.7502 18.4816 35.345 17.8868 35.345 17.1534V13.9097C37.4854 13.3251 39.0637 11.3647 39.0637 9.0415C39.0637 6.25868 36.7997 3.99463 34.0168 3.99463ZM34.0168 11.4321C32.6987 11.4321 31.6262 10.3597 31.6262 9.0415C31.6262 7.72334 32.6987 6.65088 34.0168 6.65088C35.335 6.65088 36.4075 7.72334 36.4075 9.0415C36.4075 10.3597 35.335 11.4321 34.0168 11.4321Z" fill="white"/>
<path d="M60.6798 14.3542C59.7265 13.401 58.4592 12.876 57.1111 12.876C55.7631 12.876 54.4958 13.401 53.5425 14.3543C51.8998 15.9971 51.6297 18.4993 52.7296 20.4262L50.436 22.7199C49.9173 23.2385 49.9173 24.0795 50.436 24.5983C50.6955 24.8574 51.0354 24.9871 51.3752 24.9871C51.7152 24.9871 52.055 24.8574 52.3143 24.5981L54.6069 22.3055C55.3613 22.7381 56.2181 22.9699 57.1111 22.9699C58.4592 22.9699 59.7265 22.4449 60.6797 21.4917C61.6331 20.5385 62.1581 19.271 62.1581 17.923C62.1581 16.5749 61.6331 15.3075 60.6798 14.3542ZM58.8017 19.6136C57.8696 20.5456 56.3529 20.5456 55.421 19.6136C54.4887 18.6813 54.4887 17.1646 55.4208 16.2325C55.8869 15.7664 56.499 15.5334 57.1113 15.5334C57.7235 15.5334 58.3357 15.7664 58.8017 16.2325C59.2533 16.6841 59.502 17.2844 59.502 17.9231C59.502 18.5617 59.2533 19.162 58.8017 19.6136Z" fill="white"/>
<path d="M62.9531 35.9802C60.63 35.9802 58.6695 37.5586 58.0849 39.699H54.8412C54.1078 39.699 53.5131 40.2937 53.5131 41.0271C53.5131 41.7605 54.1078 42.3552 54.8412 42.3552H58.0849C58.6695 44.4956 60.63 46.074 62.9531 46.074C65.7359 46.074 68 43.8099 68 41.0271C68 38.2443 65.7359 35.9802 62.9531 35.9802ZM62.9531 43.4177C61.6349 43.4177 60.5625 42.3453 60.5625 41.0271C60.5625 39.7089 61.6349 38.6365 62.9531 38.6365C64.2713 38.6365 65.3437 39.7089 65.3437 41.0271C65.3437 42.3453 64.2713 43.4177 62.9531 43.4177Z" fill="white"/>
<path d="M50.7435 40.0878C50.4966 39.8407 50.154 39.6986 49.8047 39.6986C49.4554 39.6986 49.1127 39.8406 48.8657 40.0878C48.6187 40.3349 48.4766 40.6774 48.4766 41.0267C48.4766 41.3774 48.6185 41.7187 48.8657 41.9656C49.1127 42.2141 49.4554 42.3549 49.8047 42.3549C50.154 42.3549 50.4966 42.2139 50.7435 41.9656C50.9906 41.7187 51.1328 41.376 51.1328 41.0267C51.1328 40.6774 50.9907 40.3361 50.7435 40.0878Z" fill="white"/>
<path d="M13.1588 39.6653H9.91512C9.33048 37.5249 7.37003 35.9465 5.04688 35.9465C2.26405 35.9465 0 38.2106 0 40.9934C0 43.7762 2.26405 46.0403 5.04688 46.0403C7.37003 46.0403 9.33048 44.4619 9.91512 42.3215H13.1588C13.8922 42.3215 14.4869 41.7268 14.4869 40.9934C14.4869 40.26 13.8923 39.6653 13.1588 39.6653ZM5.04688 43.384C3.72871 43.384 2.65625 42.3116 2.65625 40.9934C2.65625 39.6752 3.72871 38.6028 5.04688 38.6028C6.36504 38.6028 7.4375 39.6752 7.4375 40.9934C7.4375 42.3116 6.36504 43.384 5.04688 43.384Z" fill="white"/>
<path d="M17.4836 22.5917L15.191 20.2992C15.6237 19.5449 15.8553 18.688 15.8553 17.7949C15.8553 16.4469 15.3303 15.1795 14.377 14.2261C13.4236 13.2729 12.1563 12.7479 10.8083 12.7479C9.46025 12.7479 8.19296 13.2729 7.23963 14.2263C5.27201 16.194 5.27201 19.3959 7.23963 21.3636C8.19296 22.3168 9.46025 22.8418 10.8084 22.8418C11.7015 22.8418 12.5584 22.6101 13.3127 22.1775L15.6054 24.4701C15.8647 24.7293 16.2046 24.8591 16.5445 24.8591C16.8843 24.8591 17.2242 24.7293 17.4836 24.4701C18.0022 23.9515 18.0022 23.1105 17.4836 22.5917ZM12.4995 19.4848C12.4994 19.4851 12.4991 19.4852 12.4989 19.4855C11.5668 20.4178 10.0501 20.4178 9.11813 19.4855C8.18592 18.5533 8.18592 17.0366 9.118 16.1045C9.58403 15.6385 10.1962 15.4054 10.8084 15.4054C11.4207 15.4054 12.0328 15.6385 12.4989 16.1045C12.9504 16.5561 13.1992 17.1564 13.1992 17.7951C13.1992 18.4332 12.9506 19.0334 12.4995 19.4848Z" fill="white"/>
</svg>
