<svg width="68" height="69" viewBox="0 0 68 69" fill="none" xmlns="http://www.w3.org/2000/svg">
<path d="M11.39 34.2689C10.9438 33.8864 10.88 33.2171 11.2625 32.7708C14.7581 28.6164 21.0269 26.0239 27.625 26.0239C28.2094 26.0239 28.6875 26.5021 28.6875 27.0864C28.6875 27.6708 28.2094 28.1489 27.625 28.1489C21.6431 28.1489 15.9906 30.4439 12.8775 34.1414C12.665 34.3964 12.3675 34.5239 12.0594 34.5239C11.8256 34.5239 11.5813 34.4389 11.39 34.2689ZM41.4375 11.1489C34.8394 11.1489 28.5706 13.7414 25.0644 17.8958C24.6925 18.3421 24.7456 19.0114 25.1919 19.3939C25.3937 19.5639 25.6381 19.6489 25.8825 19.6489C26.1906 19.6489 26.4881 19.5214 26.7006 19.2664C29.8031 15.5689 35.4556 13.2739 41.4375 13.2739C42.0219 13.2739 42.5 12.7958 42.5 12.2114C42.5 11.6271 42.0219 11.1489 41.4375 11.1489ZM10.625 39.8364C10.625 39.2521 10.1469 38.7739 9.5625 38.7739C8.97812 38.7739 8.5 39.2521 8.5 39.8364C8.5 43.3639 10.3806 46.732 13.7912 49.3352C13.9825 49.4839 14.2056 49.5477 14.4287 49.5477C14.7475 49.5477 15.0663 49.3989 15.2788 49.1333C15.6294 48.6658 15.5444 47.9964 15.0769 47.6458C12.2081 45.457 10.625 42.6839 10.625 39.8364ZM60.5306 45.9564C60.6369 46.3602 60.4881 46.7958 60.1481 47.0508C59.9569 47.1996 59.7337 47.2739 59.5 47.2739C59.33 47.2739 59.1494 47.2314 59.0006 47.1464L50.7131 42.6839C48.9387 51.2902 39.2594 57.8989 27.625 57.8989C24.9475 57.8989 22.2912 57.5377 19.72 56.8258L10.0619 62.0214C9.91313 62.1064 9.7325 62.1489 9.5625 62.1489C9.32875 62.1489 9.10563 62.0746 8.91438 61.9258C8.585 61.6708 8.43625 61.2352 8.53187 60.8314L10.6675 52.2783C6.52375 48.9102 4.25 44.5221 4.25 39.8364C4.25 32.4733 9.9875 26.1196 18.19 23.3146C19.2738 14.0602 29.2931 6.89893 41.4375 6.89893C54.3256 6.89893 64.8125 15.0058 64.8125 24.9614C64.8125 29.6364 62.5387 34.0352 58.395 37.4139L60.5306 45.9564ZM48.875 39.8364C48.875 31.0496 39.3444 23.8989 27.625 23.8989C24.7562 23.8989 22.015 24.3346 19.5181 25.1102C19.5075 25.1102 19.4862 25.1208 19.4756 25.1208C11.7937 27.5221 6.375 33.2171 6.375 39.8364C6.375 44.0439 8.55313 48.0177 12.5056 51.0245C12.8456 51.2795 12.9944 51.7152 12.8988 52.1296L11.1775 59.0145L19.0931 54.7539C19.3375 54.6158 19.6244 54.5945 19.9006 54.6689C22.3975 55.402 25.0006 55.7739 27.625 55.7739C39.3444 55.7739 48.875 48.6233 48.875 39.8364ZM56.5463 36.1495C60.5094 33.1427 62.6875 29.1689 62.6875 24.9614C62.6875 16.1746 53.1569 9.02393 41.4375 9.02393C30.7806 9.02393 21.9087 14.8996 20.4106 22.6558C22.6844 22.0821 25.1069 21.7739 27.625 21.7739C40.5131 21.7739 51 29.8808 51 39.8364C51 40.0277 50.9894 40.2189 50.9787 40.4102L57.885 44.1289L56.1638 37.2546C56.0575 36.8402 56.2169 36.4152 56.5463 36.1495ZM36.125 32.3989H19.125C18.5406 32.3989 18.0625 32.8771 18.0625 33.4614C18.0625 34.0458 18.5406 34.5239 19.125 34.5239H36.125C36.7094 34.5239 37.1875 34.0458 37.1875 33.4614C37.1875 32.8771 36.7094 32.3989 36.125 32.3989ZM36.125 36.6489H19.125C18.5406 36.6489 18.0625 37.1271 18.0625 37.7114C18.0625 38.2958 18.5406 38.7739 19.125 38.7739H36.125C36.7094 38.7739 37.1875 38.2958 37.1875 37.7114C37.1875 37.1271 36.7094 36.6489 36.125 36.6489ZM36.125 40.8989H19.125C18.5406 40.8989 18.0625 41.3771 18.0625 41.9614C18.0625 42.5458 18.5406 43.0239 19.125 43.0239H36.125C36.7094 43.0239 37.1875 42.5458 37.1875 41.9614C37.1875 41.3771 36.7094 40.8989 36.125 40.8989ZM36.125 45.1489H19.125C18.5406 45.1489 18.0625 45.6271 18.0625 46.2114C18.0625 46.7958 18.5406 47.2739 19.125 47.2739H36.125C36.7094 47.2739 37.1875 46.7958 37.1875 46.2114C37.1875 45.6271 36.7094 45.1489 36.125 45.1489Z" fill="white"/>
</svg>
