<svg width="68" height="68" viewBox="0 0 68 68" fill="none" xmlns="http://www.w3.org/2000/svg">
<g clip-path="url(#clip0_30_705)">
<path d="M33.8672 39.6099C33.5372 39.6099 33.2083 39.5355 32.9043 39.3853L1.08014 23.6573C0.337219 23.2887 -0.132812 22.5309 -0.132812 21.7017C-0.132812 20.8726 0.337219 20.1132 1.08014 19.7457L32.9043 4.01767C33.5123 3.71774 34.222 3.71774 34.8301 4.01767L66.6542 19.7457C67.3972 20.1132 67.8672 20.8711 67.8672 21.7017C67.8672 22.5319 67.3972 23.2898 66.6542 23.6573L34.8301 39.3853C34.5261 39.5355 34.1971 39.6099 33.8672 39.6099ZM6.96176 21.7017L33.8672 34.9996L60.7742 21.7017L33.8672 8.40387L6.96176 21.7017Z" fill="white"/>
<path d="M33.8672 57.5492C25.1213 57.5492 18.27 53.1167 18.27 47.4565V37.3435C18.27 36.1391 19.2443 35.1624 20.4459 35.1624C21.6469 35.1624 22.6217 36.1391 22.6217 37.3435V47.4565C22.6217 50.1678 27.2395 53.189 33.8672 53.189C40.4948 53.189 45.1127 50.1678 45.1127 47.4565V37.3435C45.1127 36.1391 46.0865 35.1624 47.2885 35.1624C48.4911 35.1624 49.4659 36.1391 49.4659 37.3435V47.4565C49.4644 53.1167 42.6141 57.5492 33.8672 57.5492Z" fill="white"/>
<path d="M58.8385 64.2735H47.371C46.6193 64.2735 45.9225 63.8852 45.5241 63.2458C45.1272 62.6059 45.0867 61.8075 45.4182 61.1322L51.2677 49.2067V29.1122L37.7535 22.4867C36.6749 21.958 36.2267 20.6517 36.7559 19.57C37.283 18.4893 38.5867 18.0391 39.6663 18.5693L54.4023 25.7937C55.1483 26.1597 55.622 26.9191 55.622 27.7519V49.713C55.622 50.0451 55.5452 50.3757 55.3994 50.6746L50.8662 59.9112H55.7102L54.4526 56.5158C54.0355 55.3867 54.6093 54.1314 55.7377 53.7129C56.8629 53.295 58.1158 53.8704 58.5345 54.9995L60.88 61.3329C61.1264 62.0014 61.032 62.7499 60.6253 63.3357C60.2185 63.9216 59.5519 64.2735 58.8385 64.2735Z" fill="white"/>
</g>
<defs>
<clipPath id="clip0_30_705">
<rect width="68" height="68" fill="white"/>
</clipPath>
</defs>
</svg>
