<svg width="100" height="100" viewBox="0 0 100 100" fill="none" xmlns="http://www.w3.org/2000/svg">
<path d="M11.9209 56.8592C11.06 57.2635 10.6802 58.2814 11.0639 59.1514L14.9961 67.6017C15.1893 68.0224 15.5418 68.35 15.9752 68.5116C16.1651 68.5807 16.3665 68.6163 16.569 68.6163C16.8224 68.6185 17.0725 68.5642 17.3029 68.4596L47.0128 54.568L44.3218 82.7341C44.2698 83.2886 44.4832 83.8337 44.8975 84.204C46.2001 85.2833 47.8233 85.898 49.5122 85.9534C49.978 85.9528 50.441 85.8942 50.8925 85.7791C53.3044 85.1491 55.1744 82.9976 56.4501 79.3231L68.1418 44.6665L91.2974 33.8539C98.1132 30.6703 101.626 24.2149 99.2669 19.1762C97.9283 16.5426 95.3642 14.7511 92.4335 14.3999C89.1772 13.908 85.8491 14.4208 82.8916 15.8704L56.1699 28.4137L27.4397 17.1644C23.8216 15.8003 20.956 15.8353 18.9464 17.2877C17.2602 18.6727 16.3008 20.7546 16.3419 22.9378C16.3594 23.4917 16.638 24.0039 17.0933 24.3206L36.4392 37.6336L25.36 42.8821L6.78193 38.1579C6.02066 37.9706 5.22819 38.3141 4.84235 38.9978L0.211783 47.3423C-0.0284743 47.7844 -0.0662369 48.3093 0.108347 48.7815C0.281836 49.2543 0.650705 49.6285 1.12082 49.8093L14.8746 55.4956L11.9209 56.8592ZM19.9239 22.0634C20.0267 21.3238 20.4005 20.6505 20.973 20.1739C21.9696 19.4562 23.7871 19.5613 26.216 20.4708L51.8015 30.4605L40.1268 35.9188L19.9239 22.0634ZM4.19601 47.3253L7.23672 41.9196L25.1148 46.3627C25.5001 46.4602 25.9068 46.4235 26.2691 46.2586L84.3775 19.0891C86.6876 17.9484 89.2894 17.5332 91.8397 17.8991C93.6282 18.064 95.2214 19.0973 96.1042 20.6631C97.5709 23.8127 94.6878 28.4137 89.8115 30.6879L69.6791 40.1357L70.9028 36.5133C71.212 35.5814 70.7069 34.5744 69.776 34.2654C68.8439 33.9564 67.8386 34.4621 67.5299 35.394L53.1467 78.2378C52.2902 80.6703 51.2241 82.1227 50.036 82.4366C49.2999 82.5785 48.5381 82.4339 47.9038 82.035L51.3993 45.2955C51.4907 44.3296 50.783 43.4722 49.8171 43.3807C48.8522 43.2881 47.9957 43.9976 47.9038 44.9635L47.3625 50.5791L17.3724 64.5747L14.9096 59.3262L19.8368 57.0175C20.4711 56.7376 20.88 56.1097 20.88 55.4167C20.88 54.7231 20.4711 54.0952 19.8368 53.8158L4.19601 47.3253Z" fill="white"/>
</svg>
