<svg width="63" height="63" viewBox="0 0 63 63" fill="none" xmlns="http://www.w3.org/2000/svg">
<path d="M31.5 2.52002C15.5097 2.52002 2.52002 15.5097 2.52002 31.5C2.52002 47.4903 15.5097 60.48 31.5 60.48C47.4903 60.48 60.48 47.4903 60.48 31.5C60.48 15.5097 47.4903 2.52002 31.5 2.52002ZM31.5 5.04002C46.1284 5.04002 57.96 16.8716 57.96 31.5C57.96 46.1284 46.1284 57.96 31.5 57.96C16.8716 57.96 5.04002 46.1284 5.04002 31.5C5.04002 16.8716 16.8716 5.04002 31.5 5.04002ZM18.9025 22.68L13.8182 22.6825C13.8182 22.6825 13.5272 22.6661 13.1759 22.712C12.8245 22.7579 12.3054 22.7793 11.7731 23.3814L11.7707 23.3838L11.7682 23.3863C11.2948 23.9278 11.3128 24.5579 11.372 24.9047C11.431 25.2502 11.564 25.5101 11.564 25.5101V25.5126C11.6128 25.6325 15.3045 34.6776 19.9582 39.5374C23.2408 42.9676 26.7516 44.1 29.8783 44.1H31.5C32.0336 44.1 32.5101 44.0757 33.0381 43.8022C33.5661 43.5288 34.02 42.774 34.02 42.1879C34.02 41.5564 34.0355 40.9442 34.116 40.603C34.1912 40.2844 34.1621 40.3626 34.1923 40.3619C34.2225 40.3684 34.2775 40.3811 34.3818 40.4283C34.6066 40.5299 34.9539 40.7568 35.3391 41.0558C36.1083 41.653 37.0195 42.5194 38.0412 43.1895C39.5046 44.1594 41.0928 44.1 41.0928 44.1H46.3296L46.3862 44.0951C46.3862 44.0951 47.1898 44.0768 48.0154 43.5709C48.4282 43.318 48.9187 42.8539 49.0834 42.1583C49.2481 41.4628 49.0378 40.733 48.6331 40.0912C48.4852 39.8557 47.7674 38.8154 44.9023 36.2718C44.1621 35.6153 43.6573 35.1506 43.4577 34.9035C43.3869 34.8158 43.3809 34.8242 43.3667 34.8198C43.3834 34.7767 43.5489 34.4281 43.9917 33.8527C44.4533 33.2529 45.1546 32.4172 46.0565 31.2687C47.2059 29.8043 48.0124 28.3963 48.5199 27.2081C48.7736 26.6141 48.9535 26.075 49.0613 25.5864C49.169 25.0977 49.2551 24.6916 49.0957 24.1123C48.9769 23.6811 48.6541 23.2949 48.3378 23.091C48.0214 22.8871 47.7264 22.8103 47.4617 22.7612C46.9321 22.663 46.465 22.68 46.0294 22.68C45.1174 22.68 41.0632 22.712 40.7285 22.712C40.3358 22.712 39.7092 22.8756 39.4193 23.0418C38.6995 23.454 38.4743 24.0188 38.4743 24.0188L38.4054 24.1394L38.366 24.2747C38.366 24.2747 37.4428 27.2612 36.4933 28.8004H36.4908C35.3742 30.6137 34.5413 31.3329 34.1751 31.5369C34.1362 31.5586 34.1577 31.5471 34.1308 31.5615C34.1021 31.4781 34.066 31.3632 34.0422 31.1506C33.9886 30.6715 34.02 29.9968 34.02 29.3442C34.02 27.5369 34.1558 26.4099 34.0053 25.3428C33.93 24.8092 33.7384 24.215 33.3014 23.7579C32.8644 23.3008 32.2999 23.0758 31.7363 22.9458H31.7338C31.1464 22.8105 30.5133 22.6943 28.9923 22.68C27.0544 22.662 25.7924 22.722 24.6709 23.2214L24.6586 23.2288L24.6488 23.2337C24.2057 23.4419 23.8564 23.6804 23.5487 23.9991C23.3949 24.1584 23.2124 24.2744 23.0861 24.7817C23.0229 25.0353 23.016 25.5151 23.3026 25.9038C23.5893 26.2926 23.9911 26.4098 24.2279 26.4403C24.1843 26.4347 24.4143 26.4853 24.5922 26.5732C24.77 26.6612 24.9245 26.7878 24.9638 26.839V26.8415C24.9473 26.8201 25.1181 27.2445 25.1631 27.6314C25.2081 28.0183 25.2 28.3303 25.2 28.3303L25.1976 28.4066L25.2049 28.4829C25.2049 28.4829 25.2823 29.339 25.2419 30.2228C25.2216 30.6647 25.1658 31.1094 25.0917 31.3819C25.0878 31.3963 25.086 31.3913 25.0819 31.404C24.7664 31.1837 24.039 30.416 23.0369 28.761C22.1105 27.23 21.2428 24.4765 21.2428 24.4765L21.2231 24.415L21.201 24.3559C21.201 24.3559 21.0392 23.7408 20.3249 23.2387C19.6554 22.7673 19.0181 22.7022 19.0181 22.7022L18.9025 22.68ZM18.6096 25.2C18.6817 25.2264 18.8324 25.2807 18.8606 25.2935L18.8311 25.2049L18.8705 25.296L18.8754 25.2985V25.3009H18.8779C18.8145 25.2566 18.8682 25.3006 18.8754 25.3108C18.9102 25.4295 19.6796 28.0797 20.8811 30.0653C21.9756 31.8729 22.7842 32.8856 23.6669 33.4909C24.5486 34.0957 25.7343 34.0333 26.337 33.7198C27.1424 33.3015 27.3675 32.614 27.5231 32.0414C27.6787 31.4688 27.7343 30.8879 27.7594 30.3385C27.8074 29.2902 27.7253 28.4326 27.7176 28.3476C27.7188 28.3002 27.73 27.8906 27.6659 27.3386C27.6012 26.7823 27.4853 26.091 26.9916 25.3969C27.5446 25.3147 27.8516 25.1896 28.9677 25.2C30.3911 25.2134 30.6076 25.2728 31.1678 25.4018C31.4729 25.4722 31.5068 25.5305 31.4779 25.5003C31.449 25.47 31.4754 25.4499 31.5099 25.6947C31.5789 26.1842 31.5 27.4396 31.5 29.3442C31.5 29.8811 31.4482 30.6382 31.5369 31.4311C31.6256 32.2235 31.8733 33.2374 32.8314 33.8305C33.3773 34.1684 34.4202 34.2846 35.4031 33.737C36.386 33.1894 37.3946 32.139 38.6367 30.1219C39.8637 28.1331 40.5975 25.5182 40.6769 25.2419C40.6769 25.2419 40.6909 25.2328 40.699 25.2271C40.7213 25.2282 40.6929 25.232 40.7285 25.232C41.1953 25.232 45.1774 25.2 46.0294 25.2C46.2638 25.2 46.3667 25.2126 46.5413 25.2197C46.4707 25.4917 46.3759 25.8085 46.2017 26.2164C45.7922 27.175 45.0895 28.4183 44.0729 29.7134C43.1969 30.8291 42.5163 31.6383 41.9959 32.3146C41.4755 32.9909 41.0666 33.5243 40.8959 34.2956C40.7251 35.067 41.0509 35.9369 41.4963 36.4883C41.9418 37.0398 42.493 37.5042 43.2288 38.1569C46.001 40.6179 46.4558 41.3629 46.4994 41.4324V41.4348C46.5462 41.5091 46.5159 41.4344 46.5339 41.4717C46.3767 41.5207 46.1896 41.5762 46.1721 41.58H41.0731H41.0657C41.0657 41.58 40.1278 41.5493 39.4316 41.0878L39.4292 41.0854H39.4267C38.6902 40.603 37.8 39.7756 36.8846 39.0649C36.4268 38.7096 35.9608 38.3766 35.4203 38.1322C34.8798 37.8879 34.1947 37.7146 33.4737 37.9304C32.4301 38.2428 31.8509 39.236 31.6649 40.0247C31.5314 40.5909 31.5511 41.0832 31.5468 41.5776C31.5108 41.5795 31.5419 41.58 31.5 41.58H29.8783C27.3173 41.58 24.653 40.7982 21.7793 37.7951C18.0432 33.8936 14.7098 26.3486 14.2095 25.2025L18.6096 25.2ZM40.5883 25.2099C40.5654 25.215 40.6308 25.2199 40.6842 25.2246C40.677 25.2285 40.6849 25.2212 40.6744 25.2271C40.6733 25.206 40.619 25.203 40.5883 25.2099Z" fill="white"/>
</svg>
